<svg id="Layer_1" data-name="Layer 1" xmlns="http://www.w3.org/2000/svg" viewBox="0 0 590 530.06"><path d="M74.42,443.32c8.31-.95,16.66-2,25,0,3,.72,3.85-1.32,5.13-3.48,3.7-6.25,6.43-7.13,12.87-4.47a19.6,19.6,0,0,1,11.74,12.09c1.65,4.77.94,9.09-3.4,11.35s-3.29,4.79-2.23,7.92c6.06,17.87.77,32.35-12.77,44.78-5.56,5.1-12.36,6.55-19.09,7.35-4.07.49-7.24,1.08-9.83,4.23-2.24,2.74-4.5,3.57-8.3,1.9-5.61-2.45-11.94-1.21-17.94-1.37-3.84-.1-5.36-1.64-5.4-5.12-.1-7.06,1.5-13.86,3.51-20.55a6.67,6.67,0,0,1,5.91-4.59c4-.49,6-2.84,7.84-6.08s9.76-5.41,13-3.82a4.81,4.81,0,0,1,2.52,6.6c-1.14,2.86-3.23,4.24-6.12,2-2.62-2.06-4.87-3.61-6.43,1.07-.64,1.92-2.72,2.1-4.44,2.09-7.47,0-9.91,5-11.25,11.07a28.49,28.49,0,0,0-.47,3.46c-.93,10.59,1,12.11,11.78,10.66,6.56-.89,13.92,2.32,19.24-4.36.49-.61,2.24-.32,3.4-.28,19.65.75,40.32-22,31.62-47.33-.85-2.48-1.95-5-2.23-7.51-.32-2.88-1.47-6.69,4.52-5.19,3,.76,4.36-2.69,3.63-5.48-1.11-4.28-3.23-8.12-7.21-10.55-6.38-3.91-10.82-1.69-11.85,5.89-.12.83-.36,1.64-.69,3.14-8.77-3-17.59-2.84-26.55-2-6,.58-10.26,3.28-13.67,8.1-8.74,12.36-13.1,26.54-17.24,40.8-3.41,11.72-8.56,22.86-11.23,34.82-2,8.86-1.78,8.88,7.38,9.9q22.95,2.55,45.8,5.88a42.39,42.39,0,0,0,15.56-.17c14.21-3.15,26.22,2,37.22,10.43,1.55,1.19,3.88,2.26,3,4.75-.95,2.79-3.41,2.36-5.85,2.29-16.57-.46-33.13-.8-49.69-1.45-13.56-.53-27.24,1.33-40.84,2.5-11.68,1-23.23.12-34.78-1.37-4.85-.63-7.13-3.61-7.25-8.31-.5-19,.67-37.77,6.74-56,2.94-8.81,5.4-17.78,8.16-26.65,2-6.51-1.68-11.58-5-16-4-5.4-6.41-11.64-10.38-17-3.24-4.35-3.54-9.06-1.6-14.06,2.84-7.32,5.72-14.61,10.12-21.18,3.45-5.13,5.92-10.46,6-16.94,0-10.36,7.16-17.12,14.25-22.88,11-8.94,21.26-19.08,34.84-24.46,4.58-1.82,6.32-5.89,6.44-10.55.51-19.81,3.19-39.36,6.88-58.8a147.74,147.74,0,0,1,5.91-21.69c3-8.59,5.81-17.06,5-26.32a14.2,14.2,0,0,1,.26-5.21c4.18-14,2.68-28.29,3.09-42.5.38-13.09,3-26,4.5-38.94,1-8.94,2.26-17.85,3.77-26.74,1.16-6.76-2.69-13-5-19-6-15.93-4.18-31.3.43-46.82,1-3.44,1.76-7.85,6.6-8.13,3.33-.18,7.66,5.59,8,10.23.55,7.54,1.78,15,3,22.41a28.07,28.07,0,0,0,5.11,12.82,18.61,18.61,0,0,1,2.41,19.79c-3,6.58-2.37,13.24-1.5,19.69,2.76,20.43,6.51,40.73,9.32,61.16,1.55,11.27,1.75,22.73-2.18,33.68-2.08,5.79-2.55,11.85-3.88,17.74-1.4,6.25-.26,12.74,1.25,19,3.45,14.38,6,29,11.73,43.84,8.42-4.47,15.76-10.15,24-14.27,15.84-7.93,31.39-16.46,47.2-24.46,7-3.52,12.57-8.09,16.52-14.94,8.7-15.11,17-30.55,26.75-45,12.51-18.48,24.93-37.09,39.64-54,8.4-9.65,16.71-19.33,26.05-28.15,6.42-6,13.66-10.85,20.76-15.89,6.85-4.86,14.87-5,22.71-3.51,8.65,1.65,14.52,10.37,13.14,19.91-1.7,11.63-6.62,22.17-13.25,31.83-7.07,10.29-15.64,19.41-23.34,29.21-5.3,6.73-12.74,11.8-19.33,17.5A348.91,348.91,0,0,1,289,220.31c-13.28,8.87-26.08,18.45-40.11,26.2-1.53.85-3.11,1.74-3.78,3.47-4.94,12.69-12.9,24-17.34,37.34,3.45,2.17,6.8,1,10.09.32,27.42-5.79,55.09-8.89,83.16-7.89a92.6,92.6,0,0,1,28.1,5.7c2.08.74,4.61,1.17,5.55,4.18-2.69,1.84-5-.17-7.14-1-9.4-3.52-19-4.76-29.06-5.06-28.17-.82-55.41,4.82-82.88,9.84-10.89,2-15.68,7.17-19.43,16.45-5.4,13.4-11.8,26.4-18,39.45-2.09,4.39-1.84,6.66,2.7,9.79C210.25,365.6,220.23,371,230,376.6c10.68,6.16,13.43,15.87,12.34,26.64-1.83,18.18-5,36.23-7.31,54.38-1.7,13.25-2.95,26.55-4.33,39.84a15,15,0,0,0,.16,5.22c2.94,11.07,1.05,22-1,32.85a31.4,31.4,0,0,0-.74,8.64c.4,4.71.6,9.35,6,11.51,1.83.73,3.7,2.23,3.35,4.64-.45,3.06-3.21,2.86-5.42,3.31-2,.4-4,.91-6,1.15-8.28,1-11-.83-13.12-8.89-2.8-10.66-5.46-21.39-12.3-30.4-2.23-2.93-1.82-6-.85-9.14a9.63,9.63,0,0,1,2-3.83c9.17-9.27,8.74-20,5.66-31.59-2.53-9.54-4.14-19.32-6.05-29-2.66-13.55-4.32-27.07,2.06-40.18,1.42-2.92.71-4.55-2.69-5.8-7.16-2.65-14.81-3-22-5.3-3.11-1-4.21,1.07-5.11,3.33-8.57,21.6-17.49,43.09-23.63,65.53-1.8,6.56-3.86,13.52-1.41,20.61.58,1.66.56,3.66-1.57,4.37-2.45.82-3.9-.89-4.76-2.78-2.38-5.2-2.34-10.66-1.66-16.26,1.73-14.49,6-28.31,10.36-42.15,3.31-10.55,6.25-21.21,9.76-31.69,1.21-3.6.6-5.61-2.86-6.71-5.07-1.61-9.44-4.57-13.83-7.37-3.38-2.15-5.61-1.67-8.35,1-5.18,5.07-10.42,10.1-18.14,11.38-10.28,1.7-19.8,1.11-27-7.58a9.75,9.75,0,0,0-11-3.32c-4.46,1.26-4.9,5.2-5.49,9C72.81,412.94,71.71,427.87,74.42,443.32ZM109.49,38.24a15.22,15.22,0,0,0-4.6,9.29c-.72,4.87-.85,9.87-2.1,14.59-2,7.36-1.3,14.06,1.46,21.21,4,10.52,7.18,21.18,5.21,33.05-4.18,25.21-7.58,50.56-6.67,76.26.1,2.9.72,6.06-.15,8.68-4,12-3.46,24.42-5.11,36.63C96,249.34,91,260.09,88.22,271.38c-4.69,19.32-5.65,39-7.48,58.65-.18,1.89.08,3.78,2.45,3.74,9.1-.17,17.66-1,24.22-9.08A121.56,121.56,0,0,1,127,305.24c7.59-5.91,11.14-12,8.49-21.13-3.72-12.86-6.3-25.94-8.92-39.05a45.13,45.13,0,0,1,1.35-23.1c4.87-15.4,7.49-31.12,3.8-47.13-3.54-15.32-5-31-7.62-46.41-1.85-10.71-4.64-21.75,1.64-32.32,2.3-3.88.86-8.35-1.61-11.56-7.35-9.54-8.94-20.56-9.51-32A23.7,23.7,0,0,0,109.49,38.24ZM232.84,559.92c-5.4-2.84-6.07-7.67-6.39-13-.69-11.41,2.87-22.49,2.1-33.9-2.22-33.09,4.14-65.43,9.09-97.87.93-6.1,1-12.13,1.26-18.21.38-7.35-3.09-12-9-15.61-10.43-6.34-20.8-12.78-31.2-19.18-4.68-2.89-5.41-2.78-7.58,2.28-3.77,8.83-7.13,17.83-11.07,26.57-1.85,4.12-.84,5.69,3.33,6.6,7.37,1.59,14.77,3.22,22,5.44,6,1.85,6.24,2.43,3.28,8-6,11.35-6.53,22.95-3.65,35.31,3.22,13.85,5,28,8.4,41.85,2.22,9.1.9,16.52-5.59,23.16-4.52,4.64-4.5,9.68-1.2,15.07,5.22,8.53,8.17,17.9,10.32,27.62,1.53,7,2.12,7.16,9.63,7C228.52,561,230.64,561.57,232.84,559.92Zm20.95-325.18,1.1.87c6.45-4.24,13.05-8.25,19.3-12.75,15.06-10.84,30.27-21.41,44.46-33.47,18.55-15.75,34.56-33.52,47.45-54.07a44.85,44.85,0,0,0,7.14-20.4c.76-10.15-6.4-14.84-15.78-11.13-11.45,4.54-20.26,12.68-28.08,21.51-14.78,16.66-27.8,34.78-40.88,52.81-10.23,14.11-18.5,29.45-28,44C257.93,226.12,256,230.53,253.79,234.74Zm-178.23,108a17.15,17.15,0,0,0-8.88,2.82c-10.41,6-19.27,13.9-28.43,21.54-8.69,7.26-12.68,16.43-13.45,27.27A13.26,13.26,0,0,1,22,402.31c-5.94,7.63-9.92,16.32-13.14,25.42-1,2.73-1,5,.46,7.43L25.6,461.79c2.35-5.12,4.15-9.25,6.13-13.29,2.18-4.44,4.47-8.82,6.82-13.17,5.26-9.79,14.93-14,25.55-7.67a24.27,24.27,0,0,0,2.23,1c1-.87.32-1.71.27-2.54-.88-13.25-2.7-26.21,5.33-38.74C80.66,373.78,81.18,358.47,75.56,342.77ZM27.83,472.13a44.39,44.39,0,0,0-1.91,4.13C19.72,495.64,13.58,515,11.6,535.45c-.65,6.75-1.47,13,.86,19.67,1.39,4,3.34,6.06,7.29,6,13.37-.3,26.76.73,40.11-.79a332.24,332.24,0,0,1,37.39-1.79c11.82,0,23.77.72,35.66,1.07,2.1.06,4.56.86,6.56-1.38-2.18-2.74-5.49-3.31-8.09-5-8.65-5.61-17.64-6.65-27.38-3-4.14,1.54-8.63,1.09-12.94.05-16.74-4-33.77-5.64-50.95-6.14-8.23-.24-9.43-1.62-7.22-9.46,3.15-11.17,6.75-22.22,10.3-33.27.53-1.65,2-3.4,1.06-4.93C39.41,488.36,36.86,478.71,27.83,472.13Zm81.36-85.75c10.28,1.89,19.53-1.46,25.52-9.28C141,369,145.37,359.3,146,348.48c.52-8.64-.85-10.44-9.61-12.11-8.31-1.59-16.66-1.63-25.07-1.75-4.92-.07-8.46,1.36-11,5.39a284.34,284.34,0,0,0-14.46,24.75,10.55,10.55,0,0,0-.64,8.32c3.33,11.26,5.08,12.78,17,13.29C104.49,386.47,106.82,386.38,109.19,386.38Zm92.25-85.2a5.29,5.29,0,0,0-4.49-.85C184,302,171.31,305.18,158.13,305s-12,0-11.92,12.81c.13,14.1,6.5,21.51,19.6,24.32.29.06.55.2.83.27,4.8,1.08,9.26,5.75,13.87,4.18,5.31-1.81,5-8.68,7.17-13.26C192.64,322.83,196.85,312,201.44,301.18ZM93.81,388.84c5,5.58,7.9,7.14,13.89,8,10.44,1.49,18.57-2.43,25.57-10,6-6.49,6.2-6.19,14.08-2.39,5.64,2.72,10.73,6.64,17.39,8.28,4.77-12.26,7.89-24.72,13.81-36.09,1.84-3.53.28-6.1-3.33-7.56-8-3.21-15.9-6.45-24.43-8-1.76,9.31-3.25,18.09-6.1,26.63-5.14,15.39-21.23,23.66-33.39,23C105.8,390.38,100.51,388.54,93.81,388.84ZM46.6,489.67c5.3-14.82,9.62-28.27,18.81-39.49,4.43-5.42,2.58-15.67-2.64-19.38-5.6-4-15.58-1.87-20,4.26-5.66,7.88-8.51,17.11-12.41,25.83a7.66,7.66,0,0,0,.64,7.48A154.56,154.56,0,0,0,46.6,489.67Zm173-228.85c-24.72,13.37-49.46,22.21-71.74,36.53,1.08.91,1.45,1.5,1.88,1.54,16.62,1.43,32.87-1.81,49.15-4.29a12.35,12.35,0,0,0,9.68-7.92C211.8,278.67,215.3,270.75,219.56,260.82ZM145,333.92A70.9,70.9,0,0,0,141,311.86c-2.3-6.3-4.57-7.38-9.54-3.09-5.91,5.09-12.5,9.44-17.63,15.42-1.22,1.43-3.41,2.52-1.89,5.83Zm-48.35,2.77c-3.72-.61-6.24-.58-8.74.17-6.53,1.95-9.12,7.2-6.67,13.4a5.65,5.65,0,0,0,3.43,3.63c2.08.58,2.89-1.47,3.72-2.86C91,346.65,93.48,342.19,96.63,336.69Zm-17.2,48.7C85,383,85,383,81.26,377.33,80.25,379.84,79.24,382,79.43,385.39Z" transform="translate(-5 -34.97)"/><path d="M516.15,282.68c-8.15,2.57-14.1,6.87-20.56,10.08-12.34,6.14-25.14,10.66-38.91,12.11-7.23.76-8.52,1.41-7.48,8.54,1.61,11.08.47,22,0,33-.73,16.82-5.51,32.67-10.62,48.39-1.72,5.28-5.94,10-9.84,14.25-5.43,5.88-12.83,5.44-18.44-.27-5.21-5.31-6.7-12-7.22-19.14-1.48-20.71,2.84-40.51,8.93-60.07,4.23-13.57,8.48-27.14,13-41.65a315.68,315.68,0,0,1-31.39,15.78c-5.93,2.65-12.06,4-18.24,5.57-9.33,2.45-18.78-7.61-15.89-18,2.74-9.85,7.67-18.79,12.37-27.79a10.1,10.1,0,0,1,4.77-4.93c2.87-1.27,5.62-1.44,8.17.71s2.09,4.91.84,7.18c-3.36,6.11-6.94,12.12-10.75,17.95a20.84,20.84,0,0,0-3.23,9.82c-.48,5.18,2.55,8.11,7.85,7.38,12.56-1.74,23.89-6.71,34.94-12.83,11.48-6.34,18.63-15.5,23.81-27.53a388,388,0,0,1,24-47.24c7.29-12.06,14.61-24.22,23.49-35.37,5.94-7.46,11.46-15.52,17.87-22.4,6.76-7.28,13-15.3,21.66-21,9.24-6.11,18.2-12.55,28.48-16.77,8.43-3.47,17.33-5.18,26.36-3.26,8.31,1.77,11.12,6.21,10.1,14.58-.49,4.06-2,7.84-3.66,11.61-5.22,12.14-13.63,22-22,32-13.49,16-30.5,28.17-45.59,42.41s-32.18,25.79-48.37,38.56a162.52,162.52,0,0,1-14.26,10c-9,5.59-12.47,14.3-15.92,23.22-2.21,5.72-.15,9,5.83,11.27,10.91,4.19,21.28.92,31.32-2.74,12.83-4.68,24.67-11.49,36.07-19,4.49-3,8.35-6.22,10.48-11.32a16.76,16.76,0,0,1,3.26-5.1c3.18-3.29,8-3.66,11.06-1,3.51,3.06,1.59,6.58.11,9.54-1.8,3.61-4.38,6.82-6.67,10.17a44.76,44.76,0,0,0-6.4,13.32c-1.56,5.64,1.16,9.12,6.95,8.76a56.5,56.5,0,0,0,21.81-5.69c12-6,23.76-12.38,33.91-21.3.44-.38.85-.8,1.33-1.14,1.71-1.2,3.67-2.6,5.17-.09,1.12,1.88-.58,3.17-2,4.24-10,7.52-20.75,13.8-31.46,20.22-8.58,5.15-17.93,8.17-27.34,11-14.25,4.23-22.28-3.4-19.29-17.81C515,288.46,515.45,286.21,516.15,282.68ZM452.76,260c6.89-4.73,12.85-8.67,18.63-12.85,4.45-3.22,8.15-7.31,12.95-10.23,4.5-2.73,8.2-6.91,12.08-10.38,6.26-5.59,13.2-10.29,19.37-16,10.44-9.63,21-19.19,31.36-28.87A224.29,224.29,0,0,0,573.84,152c5.08-6.75,9-14.25,9.91-22.95.41-4.08-.9-6.68-5.43-7.24a39.8,39.8,0,0,0-16.25.95c-14.35,4-25,13.29-35.43,23-15.14,14.18-26.83,31.18-38.35,48.27C474.49,214.48,463.59,236.51,452.76,260ZM445,329.77c0-1.75-.08-3.5,0-5.24.32-5.63-.92-11-2.59-16.29a6.61,6.61,0,0,0-5.78-4.7c-2.72-.35-3.34,1.83-4.06,3.71-7.75,20.07-16,40-19.68,61.34-1.71,9.91-4.44,19.92-.06,30,3.49,8,8.3,9.26,14.36,3,3.53-3.63,5.3-8.37,7-13C441.19,369.67,444.43,350,445,329.77Z" transform="translate(-5 -34.97)"/><path d="M369.08,357.81c-1.49-4.05,1.85-7,2.66-10.48s2.79-6.28,3.34-9.82c.36-2.36,2.77-3.76,5.13-4.09s3.42,1.72,4.42,3.52c3.07,5.58,4.35,12,8.21,17.23.92,1.26.14,2.82-1.15,3.77a2.27,2.27,0,0,1-3.17-.19c-5.93-7.08-11.66-3.65-17.46.15C370.68,358.14,370,357.87,369.08,357.81ZM381.73,346c0-1.25-.51-2.13-1.51-1.81a3,3,0,0,0-1.56,1.86c-.31,1.06.48,1.62,1.5,1.48A1.72,1.72,0,0,0,381.73,346Z" transform="translate(-5 -34.97)"/><path d="M242.52,345.79c.07-13.51-2.74-12.11,12.75-11.56,4.67.17,6.69,3,7.4,7.11a8.55,8.55,0,0,1-5.59,9.72c-3.93,1.33-8.29,1-10.42,6.15-1,2.36-3.77.53-4-1.84A85,85,0,0,1,242.52,345.79Zm9.51-5.86c-1.91,0-3.41.58-3.57,2.71-.19,2.55,1.39,3.54,3.67,3.56,1.76,0,3.58-.4,3.68-2.57C255.92,341.2,254.17,340.27,252,339.93Z" transform="translate(-5 -34.97)"/><path d="M555,344c1.59,3,4.78,3.17,7.41,3.67,4.18.8,4.82,3.67,5,6.94a6.52,6.52,0,0,1-4.41,6.8c-4.67,1.79-9,.1-13.27-1.9a1.73,1.73,0,0,1-.79-2.23,2.45,2.45,0,0,1,2.76-1.53c2.95.15,6.08,2.41,8.88-.68-1-3.12-3.93-3.26-6.16-4.17-3.08-1.25-6.2-2.42-6.08-6.34.14-4.45,3.46-6.35,7.16-7.69a8.56,8.56,0,0,1,6.75.17c1.59.72,3.44,1.56,3,3.65-.5,2.25-2.47,1.9-4.23,1.64C558.83,342,556.4,340.9,555,344Z" transform="translate(-5 -34.97)"/><path d="M521.61,339.44c-4.9,3.93-10.1.13-12.74,4.91,2.6,2.13,5.75,1.42,8.33,2.51a3.25,3.25,0,0,1,1.67,1.79c.39,1.29-.5,2.13-1.66,2.62-2.62,1.1-5.8.38-8.52,2.69,2,5.2,8.39.65,11.27,5.39-5.14,2.5-10.29,1.41-15.2,1.59-1.56.05-2.33-1.45-2.28-3.14.16-5.23.24-10.46.45-15.69.07-1.8.66-3.71,2.63-4.07C510.52,337.11,515.51,336.62,521.61,339.44Z" transform="translate(-5 -34.97)"/><path d="M455.91,339.82c6.39-3.34,12.35-2.44,18.2-1.9,1.39.12,2.46,2.85.94,3.16-8.23,1.71-4.35,8.69-6.23,13.11-1,2.33,2.19,6.69-2.57,6.95-5.27.29-3.06-4.32-3.59-7.05a6.19,6.19,0,0,1,0-1.72C463.18,347,462.85,342.05,455.91,339.82Z" transform="translate(-5 -34.97)"/><path d="M336.57,359c-10.3-.44-10.34-.44-10.37-10.16,0-4.05.11-8.11.35-12.15a2.53,2.53,0,0,1,2.07-2.49c1.89-.26,2.63,1.21,2.75,2.61.28,3.46.37,7,.35,10.42,0,3.74,1.17,6.19,5.39,6.23a12.32,12.32,0,0,1,3.41.53c1.47.43,2.7,1.36,2.54,3.05s-1.41,2.38-3.07,2.24Z" transform="translate(-5 -34.97)"/><path d="M291.28,346.06c0-2.59-.07-5.18,0-7.77.06-1.5.62-3,2.39-3s2.46,1.5,2.64,2.94a80.68,80.68,0,0,1,.07,17.23c-.13,1.5-1,2.79-2.73,2.75-2.24-.05-2.77-1.64-2.77-3.54v-8.63Z" transform="translate(-5 -34.97)"/><path d="M388.91,244c-2.71-.45-4.27-2.19-4.31-4.71,0-3.71,2.79-4.8,5.86-5.11,2.55-.27,3.92,1.2,3.63,3.66C393.74,240.87,392.26,243.26,388.91,244Z" transform="translate(-5 -34.97)"/><path d="M547.22,238.54c-.33,2.76-2,4.9-4.72,5.19s-4.13-2-4.22-4.45c-.11-3.15,2-4.62,5-4.62C545.59,234.66,546.88,236.1,547.22,238.54Z" transform="translate(-5 -34.97)"/></svg>