<svg xmlns="http://www.w3.org/2000/svg" viewBox="0 0 2048 2048">
    <defs>
        <style>.cls-1{fill:none;}.cls-2{fill-rule:evenodd;}</style>
    </defs>
    <g id="Layer_2" data-name="Layer 2">
        <g id="Layer_1-2" data-name="Layer 1">
            <rect class="cls-1" width="2048" height="2048" />
            <path class="cls-2" fill="#007AFF"
                d="M646.48,966.91a133.88,133.88,0,0,1-107.89-131.3V730.85a133.91,133.91,0,0,1,107.89-131.3,98.68,98.68,0,0,1,192.34,31v68.77h362.81V630.57a98.68,98.68,0,0,1,192.34-31,133.91,133.91,0,0,1,107.89,131.3V835.61A133.88,133.88,0,0,1,1394,966.91a98.68,98.68,0,0,1-192.34-31V867.12H838.82V935.9a98.68,98.68,0,0,1-192.34,31Zm-5-301.06a73,73,0,0,0-20,14.1,72,72,0,0,0-21.09,50.9V835.61a72,72,0,0,0,41.06,65ZM777,935.9V630.57a36.82,36.82,0,0,0-73.63,0V935.9a36.82,36.82,0,0,0,73.63,0Zm424.65-174.72H838.82v44.1h362.81ZM1337.1,630.57a36.81,36.81,0,0,0-73.62,0V935.9a36.81,36.81,0,0,0,73.62,0Zm61.85,270a72,72,0,0,0,41.06-65V730.85a72.11,72.11,0,0,0-21.09-50.9,72.86,72.86,0,0,0-20-14.1ZM621,1726.3a30.93,30.93,0,0,1,0-61.85h798.51a30.93,30.93,0,0,1,0,61.85Zm0-302a30.92,30.92,0,0,1,0-61.84h798.51a30.92,30.92,0,1,1,0,61.84Zm68.65,151a30.93,30.93,0,0,1,0-61.85h661.21a30.93,30.93,0,0,1,0,61.85Z" />
            <path fill="#007AFF"
                d="M1620.84,135h-210V86.32c0-47.61-41.08-86.32-91.59-86.32H725.68c-50.51,0-91.59,38.71-91.59,86.32V135H427.16c-104.36,0-189.29,78.75-189.29,175.57V1872.44c0,96.79,84.93,175.56,189.29,175.56H1620.84c104.36,0,189.29-78.77,189.29-175.56V310.56C1810.13,213.74,1725.2,135,1620.84,135ZM695.15,86.32c0-13.93,13.7-25.26,30.53-25.26H1319.2c16.82,0,30.53,11.33,30.53,25.26V244.73c0,13.93-13.71,25.26-30.53,25.26H725.68c-16.83,0-30.53-11.33-30.53-25.26ZM1749.07,1872.44c0,63.13-57.52,114.5-128.23,114.5H427.16c-70.71,0-128.23-51.37-128.23-114.5V310.56c0-63.14,57.52-114.5,128.23-114.5H634.09v48.67c0,47.58,41.08,86.32,91.59,86.32H1319.2c50.51,0,91.59-38.74,91.59-86.32V196.06h210c70.71,0,128.23,51.36,128.23,114.5Z" />
        </g>
    </g>
</svg>